<svg width="66.326172" height="53.521484" viewBox="0 0 66.3262 53.5215" fill="none" xmlns="http://www.w3.org/2000/svg" xmlns:xlink="http://www.w3.org/1999/xlink">
	<desc>
			Created with Pixso.
	</desc>
	<defs>
		<clipPath id="clip414_165">
			<rect id="Frame" width="61.753811" height="47.384949" transform="translate(4.903809 0.000000) rotate(5.940315)" fill="white" fill-opacity="0"/>
		</clipPath>
	</defs>
	<rect id="Frame" width="61.753811" height="47.384949" transform="translate(4.903809 0.000000) rotate(5.940315)" fill="#FFFFFF" fill-opacity="0"/>
	<g clip-path="url(#clip414_165)">
		<path id="Vector" d="M63.31 35.29C62.26 45.41 47.68 52.17 30.74 50.41C13.72 48.55 0.85 38.94 1.89 28.9C1.95 28.34 2.09 27.78 2.22 27.31C4.55 18.14 18.48 12.2 34.54 13.87C50.6 15.54 63 24.22 63.39 33.76C63.35 34.16 63.37 34.73 63.31 35.29Z" fill="#78CCCA" fill-opacity="1.000000" fill-rule="nonzero"/>
		<path id="Vector" d="M63.32 33.67C62.6 35.87 60.65 37.53 58.87 39.78C57.09 42.03 54.73 43.73 51.51 43.4C49.91 43.23 48.07 43.69 46.6 44.59C44.26 46.05 41.24 46.22 38.65 45.38C36.37 44.66 33.7 44.55 31.21 45.1C27.15 45.89 23.82 45.14 20.71 43.03C17.91 41.12 14.87 39.91 12 39.37C7.78 38.6 5.56 36.59 4.3 33.05C3.55 30.86 2.35 29.19 2.14 27.3C4.47 18.13 18.4 12.19 34.46 13.86C50.53 15.46 62.93 24.13 63.32 33.67Z" fill="#5EC4BA" fill-opacity="1.000000" fill-rule="nonzero"/>
		<path id="Vector" d="M63.85 30.15C63.56 32.96 61.26 34.75 59.2 37.38C57.42 39.63 55.06 41.33 51.84 41C50.24 40.83 48.41 41.29 46.93 42.19C44.51 43.64 41.57 43.82 38.98 42.98C36.7 42.26 34.03 42.15 31.54 42.7C27.48 43.49 24.15 42.74 21.04 40.63C18.24 38.72 15.2 37.51 12.33 37.05C8.02 36.27 5.81 34.18 4.55 30.64C3.68 28.11 2.18 26.09 2.43 23.76C3.33 15.09 17.78 9.53 34.73 11.3C51.75 13.07 64.75 21.48 63.85 30.15Z" fill="#EB5660" fill-opacity="1.000000" fill-rule="nonzero"/>
		<path id="Vector" d="M64.42 24.69C63.36 34.81 48.79 41.49 31.85 39.73C14.83 37.96 1.95 28.34 2.99 18.3C3.09 17.34 3.36 16.39 3.7 15.45C6.94 6.94 20.31 1.6 35.57 3.19C50.91 4.78 62.9 12.77 64.32 21.76C64.46 22.67 64.52 23.65 64.42 24.69Z" fill="#5EC4BA" fill-opacity="1.000000" fill-rule="nonzero"/>
		<path id="Vector" d="M64.24 22.48C61 30.99 47.62 36.34 32.29 34.74C17.03 33.15 5.04 25.17 3.62 16.18C6.86 7.67 20.24 2.32 35.49 3.91C50.83 5.5 62.82 13.49 64.24 22.48Z" fill="#78CCCA" fill-opacity="1.000000" fill-rule="nonzero"/>
		<path id="Vector" d="M37.21 9.28C37.99 12.69 32.29 16.8 24.56 18.52C16.83 20.31 9.91 18.94 9.12 15.61C8.34 12.2 14.04 8.09 21.77 6.38C29.5 4.58 36.42 5.95 37.21 9.28Z" fill="#9BD7D5" fill-opacity="1.000000" fill-rule="nonzero"/>
		<path id="Vector" d="M44.53 18.48C44.21 18.45 44.15 19.01 44.47 19.05C44.88 19.01 44.93 18.53 44.53 18.48Z" fill="#5EC4BA" fill-opacity="1.000000" fill-rule="nonzero"/>
		<path id="Vector" d="M48.84 14.47C47.8 14.36 47.63 15.97 48.68 16.07C49.72 16.18 49.89 14.58 48.84 14.47Z" fill="#5EC4BA" fill-opacity="1.000000" fill-rule="nonzero"/>
		<path id="Vector" d="M35.57 21.93C34.52 21.83 34.35 23.51 35.39 23.62C36.52 23.74 36.69 22.05 35.57 21.93Z" fill="#5EC4BA" fill-opacity="1.000000" fill-rule="nonzero"/>
		<path id="Vector" d="M21.76 22.85L21.68 22.84C21.35 22.81 21.3 23.37 21.62 23.4L21.7 23.41C22.02 23.45 22.08 22.88 21.76 22.85Z" fill="#5EC4BA" fill-opacity="1.000000" fill-rule="nonzero"/>
		<path id="Vector" d="M34.55 16.88L34.47 16.87C34.25 16.6 33.81 16.96 34.03 17.23C34.18 17.33 34.25 17.41 34.49 17.44C34.89 17.48 34.95 16.92 34.55 16.88Z" fill="#5EC4BA" fill-opacity="1.000000" fill-rule="nonzero"/>
		<path id="Vector" d="M39.61 6.45C39.29 6.41 39.23 6.98 39.55 7.01C39.88 7.04 39.93 6.48 39.61 6.45Z" fill="#7AC143" fill-opacity="1.000000" fill-rule="nonzero"/>
		<path id="Vector" d="M25.74 25.86L25.5 25.84C24.46 25.73 24.28 27.41 25.33 27.52L25.57 27.55C26.7 27.59 26.87 25.98 25.74 25.86Z" fill="#5EC4BA" fill-opacity="1.000000" fill-rule="nonzero"/>
		<path id="Vector" d="M8.68 15.89C8.31 15.61 7.81 15.72 7.53 16.09C7.35 16.24 7.24 16.47 7.22 16.71C7.17 17.19 7.54 17.56 7.94 17.6C8.34 17.64 8.69 17.35 8.81 16.96C9.17 16.67 8.99 16.08 8.68 15.89Z" fill="#5EC4BA" fill-opacity="1.000000" fill-rule="nonzero"/>
		<path id="Vector" d="M44.77 28.65C43.73 28.55 43.56 30.15 44.6 30.26C45.65 30.37 45.89 28.77 44.77 28.65Z" fill="#5EC4BA" fill-opacity="1.000000" fill-rule="nonzero"/>
	</g>
</svg>
